<?xml version="1.0" standalone="no"?><!DOCTYPE svg PUBLIC "-//W3C//DTD SVG 1.1//EN" "http://www.w3.org/Graphics/SVG/1.1/DTD/svg11.dtd"><svg t="1718866456172" class="icon" viewBox="0 0 1024 1024" version="1.1" xmlns="http://www.w3.org/2000/svg" p-id="2739" xmlns:xlink="http://www.w3.org/1999/xlink" width="200" height="200"><path d="M599.381333 707.754667c-28.416 0-56.234667 8.704-79.872 24.405333L337.152 853.333333c45.738667-154.325333 31.018667-278.357333 14.677333-332.928-31.146667-103.936-88.021333-165.034667-163.754666-162.517333-82.005333 2.730667-71.936 49.28-71.936 49.28-90.325333-116.266667 40.405333-134.741333 105.173333-137.045333h107.562667c8.192 18.901333 27.008 44.928 68.522666 44.714666 47.36-0.298667 120.405333-63.914667 120.405334-63.914666h-71.168 0.042666-189.952C264.832 221.994667 296.832 170.666667 422.570667 170.666667h230.016s-63.232 43.221333-32.853334 79.189333C832.853333 471.509333 938.666667 707.669333 938.666667 707.669333l-339.285334 0.085334z" fill="#222222" p-id="2740"></path></svg>